<?xml version="1.0"?>
<svg xmlns="http://www.w3.org/2000/svg" id="Outline" viewBox="0 0 512 512" width="512" height="512"><path d="M162.343,285.657a8,8,0,0,0,11.314,0l80-80a8,8,0,0,0-11.314-11.314l-80,80A8,8,0,0,0,162.343,285.657Z"/><path d="M242.343,258.343l-32,32a8,8,0,0,0,11.314,11.314l32-32a8,8,0,1,0-11.314-11.314Z"/><path d="M160,232a7.974,7.974,0,0,0,5.657-2.343l32-32a8,8,0,0,0-11.314-11.314l-32,32A8,8,0,0,0,160,232Z"/><path d="M464,240H448v-8a8,8,0,0,0-8-8H312V207.036c18.235-4.461,32-23.856,32-47.036,0-26.467-17.944-48-40-48H56c-22.056,0-40,21.533-40,48,0,23.18,13.765,42.575,32,47.036V352H24a8,8,0,0,0-8,8,40.045,40.045,0,0,0,40,40H456a40.045,40.045,0,0,0,40-40,8,8,0,0,0-8-8H421.185a72.276,72.276,0,0,0,22.687-32H464a32.036,32.036,0,0,0,32-32V272A32.036,32.036,0,0,0,464,240ZM112,128H304c13.233,0,24,14.355,24,32s-10.767,32-24,32a8,8,0,0,0-8,8v24H280a8,8,0,0,0-8,8v64a71.668,71.668,0,0,0,24,53.672V352H120V200a8,8,0,0,0-8-8c-13.233,0-24-14.355-24-32S98.767,128,112,128ZM32,160c0-17.645,10.767-32,24-32H82.218A53.532,53.532,0,0,0,72,160c0,23.18,13.765,42.575,32,47.036V352H64V200a8,8,0,0,0-8-8C42.767,192,32,177.645,32,160ZM478.629,368A24.042,24.042,0,0,1,456,384H56a24.042,24.042,0,0,1-22.629-16H478.629ZM432,296a56.063,56.063,0,0,1-56,56H344a55.981,55.981,0,0,1-56-56V240H432Zm48-8a16.019,16.019,0,0,1-16,16H447.545a72.383,72.383,0,0,0,.455-8V256h16a16.019,16.019,0,0,1,16,16Z"/><path d="M365.6,200a8,8,0,0,0,16,0,5.892,5.892,0,0,1,1.259-3.884,22.5,22.5,0,0,0,0-24.233A5.892,5.892,0,0,1,381.6,168c0-1.784.292-2.27,1.259-3.883A21.426,21.426,0,0,0,386.4,152a8,8,0,0,0-16,0,5.887,5.887,0,0,1-1.259,3.882,22.5,22.5,0,0,0,0,24.233c.967,1.614,1.259,2.1,1.259,3.884a5.892,5.892,0,0,1-1.259,3.884A21.43,21.43,0,0,0,365.6,200Z"/><path d="M413.6,200a8,8,0,0,0,16,0,5.892,5.892,0,0,1,1.259-3.884,22.5,22.5,0,0,0,0-24.233A5.892,5.892,0,0,1,429.6,168c0-1.784.292-2.27,1.259-3.883A21.426,21.426,0,0,0,434.4,152a8,8,0,0,0-16,0,5.887,5.887,0,0,1-1.259,3.882,22.5,22.5,0,0,0,0,24.233c.967,1.614,1.259,2.1,1.259,3.884a5.892,5.892,0,0,1-1.259,3.884A21.43,21.43,0,0,0,413.6,200Z"/></svg>
