<svg id="Capa_1" enable-background="new 0 0 512.904 512.904" height="512" viewBox="0 0 512.904 512.904" width="512" xmlns="http://www.w3.org/2000/svg"><path d="m491.548 228.428h-.954c-1.843-44.354-19.988-85.777-51.605-117.327-2.932-2.926-7.681-2.922-10.606.011s-2.921 7.681.011 10.606c28.777 28.717 45.364 66.369 47.197 106.71h-326.439c-4.143 0-7.5 3.357-7.5 7.5s3.357 7.5 7.5 7.5h342.396c3.06 0 5.549 2.489 5.549 5.549v8.615c0 3.06-2.489 5.549-5.549 5.549h-412.238c-3.059 0-5.548-2.489-5.548-5.549v-8.615c0-3.06 2.489-5.549 5.548-5.549h37.879c4.143 0 7.5-3.357 7.5-7.5s-3.357-7.5-7.5-7.5h-21.911c3.933-85.497 74.702-153.846 161.152-153.846h57.999c32.412 0 63.67 9.572 90.396 27.684 3.428 2.321 8.092 1.427 10.416-2.002 2.323-3.429 1.428-8.092-2.002-10.416-29.218-19.8-63.386-30.266-98.81-30.266h-5.002v-13.136l6.654-9.265c2.886-4.016 4.411-8.753 4.411-13.699.001-12.948-10.533-23.482-23.482-23.482h-23.163c-12.948 0-23.482 10.534-23.482 23.482 0 4.946 1.525 9.684 4.41 13.698l6.655 9.266v13.136h-5c-94.724 0-172.23 75.075-176.174 168.846h-.946c-11.33 0-20.548 9.218-20.548 20.549v8.615c0 10.517 7.945 19.2 18.145 20.396l18.072 39.097c5.23 11.313 14.841 19.784 26.247 23.807-.851.797-1.694 1.604-2.522 2.432l-30.415 30.415c-6.004-.545-12.179 1.525-16.637 6.158l-68.748 71.423c-2.873 2.984-2.782 7.732.202 10.604 2.984 2.873 7.733 2.782 10.604-.202l68.748-71.425c2.001-2.081 5.295-2.247 7.497-.381l65.738 55.71c1.128.955 1.811 2.294 1.924 3.768.112 1.474-.36 2.898-1.329 4.014l-40.91 47.076c-2.717 3.127-2.385 7.864.741 10.581 1.421 1.234 3.172 1.839 4.917 1.839 2.096 0 4.181-.874 5.664-2.58l40.91-47.076c3.62-4.166 5.383-9.49 4.963-14.994-.009-.114-.032-.225-.042-.338l19.877-19.878h99.864c15.868 0 31.044-5.909 42.733-16.639l18.522-17.001c3.052-2.801 3.255-7.545.454-10.597-2.802-3.052-7.546-3.256-10.597-.454l-18.522 17.001c-8.915 8.183-20.489 12.689-32.591 12.689h-102.969c-1.989 0-3.896.79-5.304 2.197l-18.792 18.792-62.786-53.208 26.889-26.89c16.971-16.969 39.532-26.314 63.529-26.314h111.269c5.804 0 10.525 4.722 10.525 10.525s-4.722 10.524-10.525 10.524h-58.607c-4.143 0-7.5 3.357-7.5 7.5s3.357 7.5 7.5 7.5h58.607c6.56 0 12.547-2.488 17.073-6.569l71.328-39.522c2.734-1.515 6.086-1.241 8.537.696 1.805 1.427 2.845 3.479 2.93 5.777.084 2.299-.802 4.421-2.496 5.976l-34.546 31.709c-3.052 2.801-3.255 7.546-.454 10.597 1.479 1.611 3.5 2.429 5.527 2.429 1.812 0 3.63-.653 5.069-1.975l31.905-29.281h25.587c17.679 0 33.896-10.369 41.312-26.416l18.072-39.096c10.201-1.195 18.146-9.879 18.146-20.396v-8.615c0-11.331-9.218-20.549-20.549-20.549zm-216.526-188.771-8.064-11.228c-1.042-1.45-1.593-3.161-1.593-4.947 0-4.677 3.806-8.482 8.482-8.482h23.163c4.677 0 8.482 3.806 8.482 8.482 0 1.786-.551 3.497-1.594 4.948l-8.063 11.227c-.916 1.274-1.408 2.805-1.408 4.375v15.55h-17.997v-15.55c0-1.57-.492-3.1-1.408-4.375zm187.242 271.134c-4.973 10.758-15.845 17.709-27.697 17.709h-15.971c.304-1.633.432-3.31.37-5.003-.245-6.663-3.386-12.856-8.615-16.992-7.212-5.702-17.069-6.508-25.111-2.052l-55.762 30.897c-1.395-12.767-12.238-22.735-25.37-22.735h-111.269c-19.952 0-39.05 5.54-55.547 15.885h-1.001c-11.852 0-22.724-6.951-27.697-17.709l-15.092-32.65h383.854z"/></svg>