<svg id="Capa_1" enable-background="new 0 0 512 512" height="512" viewBox="0 0 512 512" width="512" xmlns="http://www.w3.org/2000/svg"><g><g><path d="m494.4 425.278h-8.801l-10.089-60.529c-1.691-10.148-8.805-18.474-18.564-21.727l-7.576-2.526v-22.334c0-5.006-1.363-9.932-3.948-14.255l-16.481-27.457c-6.373-10.65-19.188-15.772-31.172-12.456l-45.664 12.685c-3.729-7.186-10.449-12.442-18.614-14.24l-111.964-24.546c-8.234-1.811-16.724.184-23.294 5.468-4.574 3.678-7.786 8.609-9.319 14.109l-44.865-15.633c-5.215-1.803-10.782-2.024-16.113-.635l-4.189 1.1c-4.006 1.051-6.401 5.151-5.35 9.158 1.051 4.006 5.146 6.404 9.158 5.35l4.174-1.096c2.445-.635 5.012-.531 7.403.294l73.101 25.471c4.264 1.486 7.446 5.162 8.304 9.587l8.845 45.918-.144.016c-11.804 1.182-21.539 9.738-24.226 21.291l-2.558 11.001-86.396-27.526c-5.629-1.795-11.565-1.757-17.172.113l-11.712 3.904-9.153-35.698c-.26-.986-.392-2.028-.392-3.098v-27.311c0-5.78 3.9-10.835 9.491-12.295l6.561-1.72c4.007-1.05 6.404-5.149 5.354-9.156s-5.151-6.405-9.156-5.354l-6.554 1.718c-12.185 3.181-20.695 14.204-20.695 26.807v27.311c0 2.359.299 4.688.875 6.872l9.404 36.678-9.763 3.254c-8.182 2.728-14.718 9.233-17.482 17.405l-18.292 54.08h-9.772c-9.704 0-17.6 7.896-17.6 17.6v20.2c0 9.704 7.896 17.6 17.6 17.6h411.41c4.143 0 7.5-3.357 7.5-7.5s-3.357-7.5-7.5-7.5h-411.41c-1.434 0-2.6-1.166-2.6-2.6v-20.2c0-1.434 1.166-2.6 2.6-2.6h101.07c4.143 0 7.5-3.357 7.5-7.5s-3.357-7.5-7.5-7.5h-75.463l16.666-49.272c1.268-3.748 4.265-6.731 8.018-7.982l35.74-11.913c2.57-.857 5.293-.875 7.873-.052l87.542 27.891-9.611 41.328h-35.765c-4.143 0-7.5 3.357-7.5 7.5s3.357 7.5 7.5 7.5h340.73c1.434 0 2.6 1.166 2.6 2.6v20.2c0 1.434-1.166 2.6-2.6 2.6h-30.39c-4.143 0-7.5 3.357-7.5 7.5s3.357 7.5 7.5 7.5h30.39c9.704 0 17.6-7.896 17.6-17.6v-20.2c0-9.702-7.896-17.598-17.6-17.598zm-277.232-157.962-14.015-4.883c.579-2.886 2.133-5.495 4.479-7.381 3.013-2.422 6.903-3.338 10.679-2.506l111.961 24.545c2.614.576 4.906 1.925 6.635 3.811l-21.943 6.095c-9.707 2.7-17.189 10.464-19.528 20.263l-5.652 23.686-45.416 4.541-9.104-47.266c-1.872-9.658-8.806-17.668-18.096-20.905zm-12.334 157.962 14.788-63.589c1.232-5.299 5.697-9.222 11.109-9.764l70.241-7.023c5.957-.597 11.6 3.124 13.39 8.851l22.352 71.525zm123.845-76c-3.3-10.56-12.601-17.973-23.261-19.227l4.608-19.31c1.073-4.494 4.506-8.056 8.956-9.293l82.796-22.999c5.497-1.525 11.372.824 14.297 5.713l16.48 27.455c1.188 1.986 1.815 4.249 1.815 6.545v17.333l-9.385-3.128c-6.989-2.33-14.759-1.748-21.323 1.591l-43.615 22.19c-5.688 2.893-10.232 7.703-12.8 13.545l-7.123 16.208zm23.75 76-5.496-17.587 14.046-31.962c1.177-2.679 3.261-4.885 5.869-6.211l43.616-22.19c3.009-1.531 6.572-1.796 9.776-.729l31.962 10.654c4.475 1.491 7.736 5.309 8.513 9.963l9.677 58.062z"/><path d="m242.439 182.256c0 4.143 3.358 7.491 7.5 7.491 4.076 0 7.394-3.261 7.498-7.312.474-.521 1.811-1.412 2.723-2.021 3.517-2.345 9.4-6.269 9.4-14.323s-5.884-11.979-9.4-14.323c-.814-.543-1.968-1.312-2.543-1.842.575-.529 1.729-1.299 2.544-1.842 3.516-2.344 9.399-6.268 9.399-14.321 0-8.055-5.885-11.979-9.4-14.322-.813-.542-1.966-1.311-2.541-1.84.576-.529 1.727-1.296 2.54-1.838 3.517-2.344 9.401-6.266 9.401-14.319 0-4.143-3.358-7.491-7.5-7.491-4.076 0-7.393 3.259-7.498 7.31-.474.521-1.811 1.411-2.722 2.019-3.517 2.344-9.401 6.266-9.401 14.319s5.884 11.978 9.399 14.321c.814.543 1.969 1.312 2.543 1.842-.574.529-1.728 1.298-2.542 1.841-3.516 2.344-9.4 6.268-9.4 14.322s5.884 11.978 9.399 14.322c.815.543 1.97 1.313 2.544 1.843-.574.529-1.729 1.3-2.544 1.843-3.515 2.343-9.399 6.266-9.399 14.321z"/><path d="m309.109 87.295c0 4.143 3.358 7.491 7.5 7.491 4.076 0 7.394-3.26 7.498-7.312.474-.521 1.811-1.412 2.723-2.021 3.517-2.344 9.401-6.268 9.401-14.322s-5.885-11.978-9.401-14.321c-.813-.543-1.965-1.311-2.541-1.84.576-.529 1.728-1.296 2.54-1.838 3.517-2.344 9.402-6.266 9.402-14.319 0-4.143-3.358-7.491-7.5-7.491-4.076 0-7.393 3.259-7.498 7.31-.475.521-1.811 1.411-2.722 2.019-3.517 2.344-9.402 6.266-9.402 14.319 0 8.055 5.885 11.978 9.401 14.321.813.543 1.967 1.312 2.542 1.841-.575.53-1.729 1.299-2.543 1.842-3.515 2.343-9.4 6.266-9.4 14.321z"/><path d="m179.809 87.295c0 4.143 3.358 7.491 7.5 7.491 4.076 0 7.394-3.26 7.498-7.312.474-.521 1.811-1.412 2.723-2.021 3.517-2.344 9.401-6.268 9.401-14.322s-5.885-11.978-9.401-14.321c-.813-.543-1.965-1.311-2.541-1.84.576-.529 1.728-1.296 2.54-1.838 3.517-2.344 9.402-6.266 9.402-14.319 0-4.143-3.358-7.491-7.5-7.491-4.076 0-7.393 3.259-7.498 7.31-.475.521-1.811 1.411-2.722 2.019-3.517 2.344-9.402 6.266-9.402 14.319 0 8.055 5.885 11.978 9.401 14.321.813.543 1.967 1.312 2.542 1.841-.575.53-1.729 1.299-2.543 1.842-3.516 2.343-9.4 6.266-9.4 14.321z"/><path d="m350.526 212.562c0 4.143 3.358 7.491 7.5 7.491 4.077 0 7.394-3.261 7.498-7.312.474-.521 1.812-1.413 2.724-2.021 3.516-2.345 9.4-6.269 9.4-14.323 0-8.056-5.885-11.979-9.4-14.323-.814-.543-1.969-1.312-2.544-1.842.575-.529 1.729-1.299 2.544-1.842 3.516-2.344 9.4-6.267 9.4-14.321s-5.885-11.978-9.4-14.321c-.814-.543-1.967-1.311-2.542-1.841.576-.528 1.728-1.296 2.54-1.838 3.517-2.344 9.402-6.266 9.402-14.319 0-4.143-3.358-7.491-7.5-7.491-4.076 0-7.393 3.259-7.498 7.31-.475.521-1.811 1.411-2.722 2.019-3.517 2.344-9.402 6.266-9.402 14.319 0 8.055 5.885 11.979 9.401 14.322.813.543 1.967 1.312 2.542 1.841-.575.529-1.729 1.298-2.542 1.841-3.517 2.344-9.401 6.268-9.401 14.322s5.885 11.978 9.4 14.322c.814.543 1.97 1.313 2.544 1.843-.574.529-1.729 1.3-2.544 1.843-3.515 2.342-9.4 6.266-9.4 14.321z"/><path d="m134.352 212.562c0 4.143 3.358 7.491 7.5 7.491 4.077 0 7.394-3.261 7.498-7.312.474-.521 1.812-1.413 2.724-2.021 3.516-2.345 9.4-6.269 9.4-14.323 0-8.056-5.885-11.979-9.4-14.323-.814-.543-1.969-1.312-2.544-1.842.575-.529 1.729-1.299 2.544-1.842 3.516-2.344 9.4-6.267 9.4-14.321s-5.885-11.978-9.4-14.321c-.814-.543-1.967-1.312-2.542-1.841.576-.528 1.728-1.296 2.54-1.838 3.517-2.344 9.402-6.266 9.402-14.319 0-4.143-3.358-7.491-7.5-7.491-4.076 0-7.393 3.259-7.498 7.31-.475.521-1.811 1.411-2.722 2.019-3.517 2.344-9.402 6.266-9.402 14.319 0 8.055 5.885 11.979 9.401 14.322.813.543 1.967 1.312 2.542 1.841-.575.529-1.729 1.298-2.542 1.841-3.517 2.344-9.401 6.268-9.401 14.322s5.885 11.978 9.4 14.322c.814.543 1.97 1.313 2.544 1.843-.574.529-1.729 1.3-2.544 1.843-3.516 2.342-9.4 6.266-9.4 14.321z"/></g></g></svg>