<?xml version="1.0" encoding="iso-8859-1"?>
<!-- Generator: Adobe Illustrator 19.0.0, SVG Export Plug-In . SVG Version: 6.00 Build 0)  -->
<svg version="1.1" id="Capa_1" xmlns="http://www.w3.org/2000/svg" xmlns:xlink="http://www.w3.org/1999/xlink" x="0px" y="0px"
	 viewBox="0 0 496 496" style="enable-background:new 0 0 496 496;" xml:space="preserve">
<g>
	<g>
		<g>
			<path d="M488,316h-17.76l-14.48-57.936c-0.889-3.563-4.088-6.063-7.76-6.064h-88v-56c0-4.418-3.582-8-8-8h-16v-88
				c0-4.418-3.582-8-8-8H224V76c0-4.418-3.582-8-8-8h-64c-4.418,0-8,3.582-8,8v16H32c-4.418,0-8,3.582-8,8v88H8
				c-4.418,0-8,3.582-8,8v88c0,4.418,3.582,8,8,8h16v88c0,4.418,3.582,8,8,8h8v16c0,13.255,10.745,24,24,24h16
				c13.255,0,24-10.745,24-24v-16h152c0,4.418,3.582,8,8,8v8c0,13.255,10.745,24,24,24h16c13.255,0,24-10.745,24-24v-8h96v8
				c0,13.255,10.745,24,24,24h16c13.255,0,24-10.745,24-24v-8c4.418,0,8-3.582,8-8v-64C496,319.582,492.418,316,488,316z M24,276h-8
				v-72h8V276z M453.752,316H298.248l6-24h143.504L453.752,316z M336,204h8v48h-8V204z M441.752,268l2,8H308.248l2-8H441.752z
				 M160,84h48v8h-48V84z M88,404c0,4.418-3.582,8-8,8H64c-4.418,0-8-3.582-8-8v-16h32V404z M145.448,372l5.328-32h66.448l5.328,32
				H145.448z M264,316c-4.418,0-8,3.582-8,8v48h-17.224l-6.888-41.312c-0.641-3.858-3.977-6.686-7.888-6.688h-80
				c-3.911,0.002-7.247,2.83-7.888,6.688L129.224,372H40V108h280v144h-8v-80c0-4.418-3.582-8-8-8H56c-4.418,0-8,3.582-8,8v104
				c0,4.418,3.582,8,8,8h233.76l-8,32H264z M296,180v79.032L293.76,268H64v-88H296z M312,404c0,4.418-3.582,8-8,8h-16
				c-4.418,0-8-3.582-8-8v-8h32V404z M472,404c0,4.418-3.582,8-8,8h-16c-4.418,0-8-3.582-8-8v-8h32V404z M480,380h-32H304h-32v-48
				h32h144h32V380z"/>
			<path d="M128,156h112c4.418,0,8-3.582,8-8v-24c0-4.418-3.582-8-8-8H128c-4.418,0-8,3.582-8,8v24C120,152.418,123.582,156,128,156
				z M136,132h96v8h-96V132z"/>
			<path d="M80,300c-17.673,0-32,14.327-32,32c0,17.673,14.327,32,32,32s32-14.327,32-32C112,314.327,97.673,300,80,300z M80,348
				c-8.837,0-16-7.163-16-16s7.163-16,16-16s16,7.163,16,16S88.837,348,80,348z"/>
			<path d="M328,356c0-13.255-10.745-24-24-24s-24,10.745-24,24s10.745,24,24,24S328,369.255,328,356z M304,364
				c-4.418,0-8-3.582-8-8s3.582-8,8-8s8,3.582,8,8S308.418,364,304,364z"/>
			<path d="M472,356c0-13.255-10.745-24-24-24s-24,10.745-24,24s10.745,24,24,24S472,369.255,472,356z M448,364
				c-4.418,0-8-3.582-8-8s3.582-8,8-8s8,3.582,8,8S452.418,364,448,364z"/>
		</g>
	</g>
</g>
<g>
</g>
<g>
</g>
<g>
</g>
<g>
</g>
<g>
</g>
<g>
</g>
<g>
</g>
<g>
</g>
<g>
</g>
<g>
</g>
<g>
</g>
<g>
</g>
<g>
</g>
<g>
</g>
<g>
</g>
</svg>
