<?xml version="1.0" encoding="iso-8859-1"?>
<!-- Generator: Adobe Illustrator 18.0.0, SVG Export Plug-In . SVG Version: 6.00 Build 0)  -->
<!DOCTYPE svg PUBLIC "-//W3C//DTD SVG 1.1//EN" "http://www.w3.org/Graphics/SVG/1.1/DTD/svg11.dtd">
<svg version="1.1" id="Capa_1" xmlns="http://www.w3.org/2000/svg" xmlns:xlink="http://www.w3.org/1999/xlink" x="0px" y="0px"
	 viewBox="0 0 496.736 496.736" style="enable-background:new 0 0 496.736 496.736;" xml:space="preserve">
<g id="XMLID_36_">
	<path id="XMLID_41_" d="M410.998,11.299C409.859,4.765,404.175,0,397.535,0H101.101c-6.623,0-12.273,4.742-13.447,11.248
		L4.184,476.832c-1.653,9.191,4.474,17.979,13.661,19.632c9.053,1.636,17.973-4.344,19.64-13.67l80.497-448.962h55.358
		l-12.854,179.174c-2.875-0.025-5.781,0.404-8.457,1.932c-8.143,4.602-11.002,14.918-6.393,23.053l11.596,20.484l-5.336,74.393
		c3.635-3.782,8.078-6.864,13.381-8.665l4.311-1.46l2.693-37.665l7.187,12.688c2.955,5.228,8.473,8.5,14.484,8.581
		c0.084,0,0.15,0,0.232,0c4.477,0,8.689-1.769,11.811-4.815c0,2.544,0,23.829,0,26.72l-35.285,11.977
		c-8.639,2.931-13.396,12.183-10.754,20.921l18.568,61.318c2.693,8.879,12.076,14.016,21.096,11.283
		c8.938-2.71,13.99-12.15,11.283-21.096l-13.828-45.65l33.369-11.324c1.371,0,36.408,0,37.812,0l31.388,10.654l-13.826,45.652
		c-2.711,8.945,2.346,18.385,11.281,21.094c8.985,2.727,18.403-2.404,21.096-11.282l18.566-61.32
		c2.645-8.737-2.115-17.987-10.754-20.921l-35.435-12.024c0-3.163,0-23.804,0-26.86c3.141,3.146,7.402,5.006,11.963,5.006
		c0.082,0,0.148,0,0.229,0c6.013-0.083,11.531-3.354,14.489-8.582l7.365-13.01l2.578,38.002l4.246,1.447
		c5.301,1.799,9.762,4.88,13.396,8.671l-5.072-74.889l11.316-19.995c4.609-8.137,1.75-18.452-6.393-23.053
		c-2.529-1.438-5.254-1.917-7.978-1.966L324.636,33.832h55.966l78.63,448.896c1.62,9.191,10.225,15.388,19.592,13.744
		c9.203-1.611,15.348-10.374,13.744-19.574L410.998,11.299z M302.07,255.244l-12.008-19.905
		c-2.412-15.065-15.361-26.612-31.122-26.612h-21.31c-16.139,0-29.289,12.118-31.236,27.711l-11.747,19.477l-17.987-31.783
		l13.643-190.299h117.369l12.785,188.912L302.07,255.244z"/>
	<path id="XMLID_40_" d="M352.948,365.377l-5.334,17.625c7.119-1.991,12.455-8.251,12.455-16.016c0-5.046-2.313-9.448-5.814-12.546
		C354.369,358.051,354.056,361.735,352.948,365.377z"/>
	<path id="XMLID_39_" d="M142.464,354.441c-3.502,3.098-5.816,7.5-5.816,12.546c0,7.682,5.22,13.909,12.241,15.974l-5.121-16.916
		C142.597,362.171,142.267,358.265,142.464,354.441z"/>
	<path id="XMLID_38_" d="M218.005,377.765l1.867,6.137h56.775l2.066-6.805c-4.791-1.627-24.978-8.352-29.619-10.299
		C244.189,369.11,223.142,376.023,218.005,377.765z"/>
	<path id="XMLID_37_" d="M248.367,111.281c-22.384,0-40.538,18.146-40.538,40.529s18.154,40.529,40.538,40.529
		c22.385,0,40.538-18.146,40.538-40.529S270.752,111.281,248.367,111.281z"/>
</g>
<g>
</g>
<g>
</g>
<g>
</g>
<g>
</g>
<g>
</g>
<g>
</g>
<g>
</g>
<g>
</g>
<g>
</g>
<g>
</g>
<g>
</g>
<g>
</g>
<g>
</g>
<g>
</g>
<g>
</g>
</svg>
